<?xml version="1.0" encoding="UTF-8" standalone="no"?>
<!DOCTYPE svg PUBLIC "-//W3C//DTD SVG 1.1//EN"
 "http://www.w3.org/Graphics/SVG/1.1/DTD/svg11.dtd">
<!-- Generated by graphviz version 2.38.0 (20140413.2041)
 -->
<!-- Title: G Pages: 1 -->
<svg width="177pt" height="479pt"
 viewBox="0.00 0.00 177.00 479.00" xmlns="http://www.w3.org/2000/svg" xmlns:xlink="http://www.w3.org/1999/xlink">
<g id="graph0" class="graph" transform="scale(1 1) rotate(0) translate(4 475)">
<title>G</title>
<polygon fill="white" stroke="none" points="-4,4 -4,-475 173,-475 173,4 -4,4"/>
<!-- A -->
<g id="node1" class="node"><title>A</title>
<ellipse fill="none" stroke="black" cx="93" cy="-453" rx="27" ry="18"/>
<text text-anchor="middle" x="93" y="-449.3" font-family="Times,serif" font-size="14.00">S0</text>
</g>
<!-- D -->
<g id="node4" class="node"><title>D</title>
<ellipse fill="none" stroke="black" cx="45" cy="-366" rx="27" ry="18"/>
<text text-anchor="middle" x="45" y="-362.3" font-family="Times,serif" font-size="14.00">S3</text>
</g>
<!-- A&#45;&gt;D -->
<g id="edge1" class="edge"><title>A&#45;&gt;D</title>
<path fill="none" stroke="black" d="M69.4734,-443.732C57.4616,-438.173 43.9473,-429.535 37,-417 33.0447,-409.864 33.0089,-401.33 34.5705,-393.35"/>
<polygon fill="black" stroke="black" points="37.9515,-394.255 37.228,-383.685 31.202,-392.399 37.9515,-394.255"/>
<text text-anchor="middle" x="46" y="-405.8" font-family="Times,serif" font-size="14.00">0/1</text>
</g>
<!-- E -->
<g id="node5" class="node"><title>E</title>
<ellipse fill="none" stroke="black" cx="93" cy="-18" rx="27" ry="18"/>
<text text-anchor="middle" x="93" y="-14.3" font-family="Times,serif" font-size="14.00">S4</text>
</g>
<!-- A&#45;&gt;E -->
<g id="edge2" class="edge"><title>A&#45;&gt;E</title>
<path fill="none" stroke="black" d="M98.3789,-435.264C103.359,-418.262 110,-391.079 110,-367 110,-367 110,-367 110,-104 110,-84.2479 105.531,-62.4067 101.176,-45.8104"/>
<polygon fill="black" stroke="black" points="104.427,-44.4352 98.3789,-35.7363 97.6822,-46.3082 104.427,-44.4352"/>
<text text-anchor="middle" x="119" y="-231.8" font-family="Times,serif" font-size="14.00">1/0</text>
</g>
<!-- B -->
<g id="node2" class="node"><title>B</title>
<ellipse fill="none" stroke="black" cx="43" cy="-105" rx="27" ry="18"/>
<text text-anchor="middle" x="43" y="-101.3" font-family="Times,serif" font-size="14.00">S1</text>
</g>
<!-- B&#45;&gt;E -->
<g id="edge3" class="edge"><title>B&#45;&gt;E</title>
<path fill="none" stroke="black" d="M36.2029,-87.2761C33.1756,-77.0719 31.4055,-64.0938 37,-54 42.2105,-44.599 51.1149,-37.3897 60.3089,-32.0275"/>
<polygon fill="black" stroke="black" points="62.2117,-34.9832 69.4734,-27.2683 58.9856,-28.7709 62.2117,-34.9832"/>
<text text-anchor="middle" x="46" y="-57.8" font-family="Times,serif" font-size="14.00">0/0</text>
</g>
<!-- F -->
<g id="node6" class="node"><title>F</title>
<ellipse fill="none" stroke="black" cx="38" cy="-192" rx="27" ry="18"/>
<text text-anchor="middle" x="38" y="-188.3" font-family="Times,serif" font-size="14.00">S5</text>
</g>
<!-- B&#45;&gt;F -->
<g id="edge4" class="edge"><title>B&#45;&gt;F</title>
<path fill="none" stroke="black" d="M46.7381,-123.164C48.3372,-132.832 49.5246,-145.114 48,-156 47.6187,-158.722 47.0783,-161.53 46.4438,-164.316"/>
<polygon fill="black" stroke="black" points="43.0254,-163.552 43.8498,-174.115 49.7923,-165.344 43.0254,-163.552"/>
<text text-anchor="middle" x="57" y="-144.8" font-family="Times,serif" font-size="14.00">1/0</text>
</g>
<!-- C -->
<g id="node3" class="node"><title>C</title>
<ellipse fill="none" stroke="black" cx="27" cy="-279" rx="27" ry="18"/>
<text text-anchor="middle" x="27" y="-275.3" font-family="Times,serif" font-size="14.00">S2</text>
</g>
<!-- C&#45;&gt;D -->
<g id="edge6" class="edge"><title>C&#45;&gt;D</title>
<path fill="none" stroke="black" d="M30.5757,-296.885C33.0406,-308.525 36.3713,-324.253 39.2111,-337.664"/>
<polygon fill="black" stroke="black" points="35.8616,-338.741 41.3574,-347.799 42.7097,-337.291 35.8616,-338.741"/>
<text text-anchor="middle" x="47" y="-318.8" font-family="Times,serif" font-size="14.00">1/1</text>
</g>
<!-- C&#45;&gt;F -->
<g id="edge5" class="edge"><title>C&#45;&gt;F</title>
<path fill="none" stroke="black" d="M20.3267,-261.184C17.3523,-251.411 15.1023,-238.911 18,-228 18.9262,-224.512 20.2907,-221.01 21.8793,-217.64"/>
<polygon fill="black" stroke="black" points="25.0826,-219.075 26.7722,-208.615 18.9289,-215.738 25.0826,-219.075"/>
<text text-anchor="middle" x="27" y="-231.8" font-family="Times,serif" font-size="14.00">0/0</text>
</g>
<!-- D&#45;&gt;A -->
<g id="edge7" class="edge"><title>D&#45;&gt;A</title>
<path fill="none" stroke="black" d="M54.1511,-383.205C61.179,-395.65 71.0052,-413.051 79.0166,-427.238"/>
<polygon fill="black" stroke="black" points="76.0067,-429.026 83.9716,-436.012 82.102,-425.584 76.0067,-429.026"/>
<text text-anchor="middle" x="80" y="-405.8" font-family="Times,serif" font-size="14.00">0/1</text>
</g>
<!-- D&#45;&gt;C -->
<g id="edge8" class="edge"><title>D&#45;&gt;C</title>
<path fill="none" stroke="black" d="M28.5073,-351.743C22.4163,-345.814 16.2182,-338.289 13,-330 9.972,-322.201 10.9798,-313.485 13.495,-305.542"/>
<polygon fill="black" stroke="black" points="16.8386,-306.606 17.2969,-296.021 10.3378,-304.01 16.8386,-306.606"/>
<text text-anchor="middle" x="22" y="-318.8" font-family="Times,serif" font-size="14.00">1/0</text>
</g>
<!-- E&#45;&gt;A -->
<g id="edge10" class="edge"><title>E&#45;&gt;A</title>
<path fill="none" stroke="black" d="M109.776,-32.4114C126.906,-47.7327 151,-74.5226 151,-104 151,-367 151,-367 151,-367 151,-392.332 133.206,-415.68 117.329,-431.469"/>
<polygon fill="black" stroke="black" points="114.652,-429.183 109.776,-438.589 119.454,-434.276 114.652,-429.183"/>
<text text-anchor="middle" x="160" y="-231.8" font-family="Times,serif" font-size="14.00">1/1</text>
</g>
<!-- E&#45;&gt;B -->
<g id="edge9" class="edge"><title>E&#45;&gt;B</title>
<path fill="none" stroke="black" d="M83.6376,-34.9162C76.3161,-47.3627 66.0047,-64.8921 57.601,-79.1784"/>
<polygon fill="black" stroke="black" points="54.4581,-77.6182 52.4046,-88.0122 60.4916,-81.1674 54.4581,-77.6182"/>
<text text-anchor="middle" x="79" y="-57.8" font-family="Times,serif" font-size="14.00">0/0</text>
</g>
<!-- F&#45;&gt;B -->
<g id="edge12" class="edge"><title>F&#45;&gt;B</title>
<path fill="none" stroke="black" d="M30.079,-174.352C26.4387,-164.636 23.4387,-152.136 26,-141 26.742,-137.774 27.8227,-134.501 29.0854,-131.317"/>
<polygon fill="black" stroke="black" points="32.2933,-132.717 33.2622,-122.167 25.9255,-129.81 32.2933,-132.717"/>
<text text-anchor="middle" x="35" y="-144.8" font-family="Times,serif" font-size="14.00">1/0</text>
</g>
<!-- F&#45;&gt;C -->
<g id="edge11" class="edge"><title>F&#45;&gt;C</title>
<path fill="none" stroke="black" d="M38.2072,-210.208C38.1,-219.888 37.5907,-232.17 36,-243 35.6034,-245.7 35.0817,-248.493 34.4889,-251.27"/>
<polygon fill="black" stroke="black" points="31.0706,-250.516 32.1266,-261.058 37.8752,-252.158 31.0706,-250.516"/>
<text text-anchor="middle" x="47" y="-231.8" font-family="Times,serif" font-size="14.00">0/0</text>
</g>
</g>
</svg>
