<?xml version="1.0" encoding="UTF-8" standalone="no"?>
<!DOCTYPE svg PUBLIC "-//W3C//DTD SVG 1.1//EN"
 "http://www.w3.org/Graphics/SVG/1.1/DTD/svg11.dtd">
<!-- Generated by graphviz version 2.38.0 (20140413.2041)
 -->
<!-- Title: G Pages: 1 -->
<svg width="170pt" height="110pt"
 viewBox="0.00 0.00 170.00 110.00" xmlns="http://www.w3.org/2000/svg" xmlns:xlink="http://www.w3.org/1999/xlink">
<g id="graph0" class="graph" transform="scale(1 1) rotate(0) translate(4 106)">
<title>G</title>
<polygon fill="white" stroke="none" points="-4,4 -4,-106 166,-106 166,4 -4,4"/>
<!-- A -->
<g id="node1" class="node"><title>A</title>
<ellipse fill="none" stroke="black" cx="27" cy="-18" rx="27" ry="18"/>
<text text-anchor="middle" x="27" y="-14.3" font-family="Times,serif" font-size="14.00">S0</text>
</g>
<!-- A&#45;&gt;A -->
<g id="edge1" class="edge"><title>A&#45;&gt;A</title>
<path fill="none" stroke="black" d="M17.4312,-35.0373C15.4784,-44.8579 18.668,-54 27,-54 32.2075,-54 35.4063,-50.4289 36.5963,-45.3529"/>
<polygon fill="black" stroke="black" points="40.0955,-45.0279 36.5688,-35.0373 33.0955,-45.0466 40.0955,-45.0279"/>
<text text-anchor="middle" x="27" y="-57.8" font-family="Times,serif" font-size="14.00">0/0</text>
</g>
<!-- B -->
<g id="node2" class="node"><title>B</title>
<ellipse fill="none" stroke="black" cx="135" cy="-18" rx="27" ry="18"/>
<text text-anchor="middle" x="135" y="-14.3" font-family="Times,serif" font-size="14.00">S1</text>
</g>
<!-- A&#45;&gt;B -->
<g id="edge2" class="edge"><title>A&#45;&gt;B</title>
<path fill="none" stroke="black" d="M54.2023,-18C67.325,-18 83.4222,-18 97.7132,-18"/>
<polygon fill="black" stroke="black" points="97.7318,-21.5001 107.732,-18 97.7318,-14.5001 97.7318,-21.5001"/>
<text text-anchor="middle" x="81" y="-21.8" font-family="Times,serif" font-size="14.00">1/1</text>
</g>
<!-- B&#45;&gt;B -->
<g id="edge3" class="edge"><title>B&#45;&gt;B</title>
<path fill="none" stroke="black" d="M130.146,-35.7817C129.322,-45.3149 130.939,-54 135,-54 137.474,-54 139.042,-50.7749 139.702,-46.0981"/>
<polygon fill="black" stroke="black" points="143.206,-45.8321 139.854,-35.7817 136.207,-45.7292 143.206,-45.8321"/>
<text text-anchor="middle" x="135" y="-57.8" font-family="Times,serif" font-size="14.00">1/0</text>
</g>
<!-- B&#45;&gt;B -->
<g id="edge4" class="edge"><title>B&#45;&gt;B</title>
<path fill="none" stroke="black" d="M127.026,-35.4203C122.481,-52.791 125.139,-72 135,-72 142.935,-72 146.206,-59.5617 144.813,-45.652"/>
<polygon fill="black" stroke="black" points="148.188,-44.6434 142.974,-35.4203 141.298,-45.8817 148.188,-44.6434"/>
<text text-anchor="middle" x="135" y="-75.8" font-family="Times,serif" font-size="14.00">0/1</text>
</g>
</g>
</svg>
